<svg id="Layer_1" data-name="Layer 1" xmlns="http://www.w3.org/2000/svg" viewBox="0 0 815 917.67"><defs><style>.cls-1{fill:#fff;}</style></defs><path class="cls-1" d="M511.5,970.92a75.37,75.37,0,0,1-37.72-10.08L141.72,769.13A75.67,75.67,0,0,1,104,703.79V320.37A75.68,75.68,0,0,1,141.72,255L473.78,63.32a75.66,75.66,0,0,1,75.44,0L881.28,255A75.68,75.68,0,0,1,919,320.37V703.79a75.67,75.67,0,0,1-37.72,65.34L549.22,960.84A75.39,75.39,0,0,1,511.5,970.92Zm0-867.69a25.47,25.47,0,0,0-12.72,3.39L166.72,298.33a25.54,25.54,0,0,0-12.72,22V703.79a25.52,25.52,0,0,0,12.72,22L498.78,917.54a25.51,25.51,0,0,0,25.44,0L856.28,725.83a25.52,25.52,0,0,0,12.72-22V320.37a25.54,25.54,0,0,0-12.72-22L524.22,106.62A25.47,25.47,0,0,0,511.5,103.23Z" transform="translate(-104 -53.25)"/><path class="cls-1" d="M484.36,524.93l-367.84-212,25-43.32,360,207.52a20.92,20.92,0,0,0,20.9,0L881.49,269.6l25,43.29-366.86,212A55.3,55.3,0,0,1,484.36,524.93Z" transform="translate(-104 -53.25)"/><rect class="cls-1" x="383" y="759.75" width="50" height="116" rx="25"/><rect class="cls-1" x="382.5" y="453.75" width="50" height="116" rx="25"/><rect class="cls-1" x="382.5" y="613.75" width="50" height="90.67" rx="25"/></svg>